Coordinates
version=1
nRows=14
nColumns=42
inDegrees=yes

Units are S.I. units (second, meters, Newtons, ...)
If the header above contains a line with 'inDegrees', this indicates whether rotational values are in degrees (yes) or radians (no).

endheader
time	pelvis_tilt	pelvis_list	pelvis_rotation	pelvis_tx	pelvis_ty	pelvis_tz	hip_flexion_r	hip_adduction_r	hip_rotation_r	knee_angle_r	knee_adduction_r	knee_angle_r_beta	ankle_angle_r	subtalar_angle_r	mtp_angle_r	hip_flexion_l	hip_adduction_l	hip_rotation_l	knee_angle_l	knee_adduction_l	knee_angle_l_beta	ankle_angle_l	subtalar_angle_l	mtp_angle_l	lumbar_extension	lumbar_bending	lumbar_rotation	arm_flex_r	arm_add_r	arm_rot_r	elbow_flex_r	pro_sup_r	wrist_flex_r	wrist_dev_r	arm_flex_l	arm_add_l	arm_rot_l	elbow_flex_l	pro_sup_l	wrist_flex_l	wrist_dev_l
      2.66000000	     11.64452247	      3.45069038	      5.00292718	      0.82070853	      0.86728073	      0.16723413	     16.10815061	     -7.03296723	    -30.90305663	     17.24663535	      2.36531559	      0.30101057	      8.86332759	     36.75894693	     -7.50081020	    -29.67353969	      5.34247393	     -9.46978419	     14.34189514	     -5.19974766	      0.25031329	     28.94813223	     33.27227893	     -7.50081020	    -34.60321346	      0.11459017	     -2.64001243	     -3.93135541	    -12.12047610	     -3.13846737	     43.66634958	     90.00000001	      0.00000000	      0.00000000	     26.77559877	    -16.67837770	      7.48894148	     49.58023398	     90.00000001	      0.00000000	      0.00000000
      2.67000000	     11.97177988	      2.85584926	      5.50545891	      0.83550967	      0.86686430	      0.16796181	     15.39390105	     -5.96520495	    -32.44702754	     17.64898841	      1.40354575	      0.30803296	      8.07230578	     37.58117972	     -7.50079136	    -29.69203094	      3.91721575	    -10.52763632	     16.93143166	     -5.22370688	      0.29550923	     27.75308207	     33.47555214	     -7.50079136	    -34.68936761	      1.01523003	     -2.67382124	     -3.86607772	    -12.05656739	     -3.56397060	     43.30680802	     90.00000001	      0.00000000	      0.00000000	     26.45881300	    -16.68448467	      7.23552290	     50.54526020	     90.00000001	      0.00000000	      0.00000000
      2.68000000	     11.96649053	      2.72336245	      5.55197389	      0.85003825	      0.86620963	      0.16869041	     15.34947163	     -5.47228071	    -32.18307909	     18.68571909	      0.67765036	      0.32612732	      7.62319703	     37.53806841	     -7.50078226	    -29.69343965	      3.42467796	    -10.62065001	     18.80496097	     -5.33827995	      0.32820848	     26.68986251	     33.37658784	     -7.50078226	    -34.46718847	      1.27364754	     -2.50930310	     -3.90494430	    -12.12264638	     -3.64861490	     43.10792547	     90.00000001	      0.00000000	      0.00000000	     26.24057750	    -16.53151934	      7.11968389	     50.83109491	     90.00000001	      0.00000000	      0.00000000
      2.69000000	     12.05421040	      2.37377719	      5.62181004	      0.86483828	      0.86597062	      0.16939276	     15.28859860	     -4.81965608	    -32.10439350	     20.10078946	     -0.21868545	      0.35082496	      7.33579773	     37.52547793	     -7.50077292	    -29.69190994	      2.70872559	    -10.81153490	     20.80084507	     -5.53556788	      0.36304323	     25.01669334	     33.14992124	     -7.50077292	    -34.31068363	      1.79810699	     -2.28514345	     -3.89389955	    -12.26840510	     -3.72583907	     42.89542983	     90.00000001	      0.00000000	      0.00000000	     25.82146174	    -16.36011336	      6.94568031	     51.17219434	     90.00000001	      0.00000000	      0.00000000
      2.70000000	     12.23887894	      1.93874755	      5.67950536	      0.87984981	      0.86612313	      0.17027238	     15.20006454	     -4.14603889	    -32.18704317	     21.86407860	     -1.23287618	      0.38160016	      7.34587487	     37.61635165	     -7.50076581	    -29.67048261	      1.85158180	    -11.11946865	     22.96687278	     -5.74653661	      0.40084755	     22.86520978	     33.00388938	     -7.50076581	    -34.23580622	      2.38842757	     -2.02750938	     -3.85721677	    -12.41547498	     -3.74720373	     42.69907779	     90.00000001	      0.00000000	      0.00000000	     25.27547854	    -16.17624211	      6.71891888	     51.49302001	     90.00000001	      0.00000000	      0.00000000
      2.71000000	     12.50053276	      1.41713786	      5.76084531	      0.89498877	      0.86665940	      0.17109710	     15.01524622	     -3.44291828	    -32.10381977	     23.77575546	     -2.16881378	      0.41496521	      7.86700639	     37.54494320	     -7.50075583	    -29.63643547	      0.95822059	    -11.33601160	     25.16189720	     -6.12552799	      0.43915795	     20.14219262	     32.76003636	     -7.50075583	    -34.22926529	      3.09011302	     -1.74910859	     -3.81355494	    -12.64703454	     -3.66751523	     42.58204842	     90.00000001	      0.00000000	      0.00000000	     24.62139558	    -16.00532148	      6.43011038	     51.81830300	     90.00000001	      0.00000000	      0.00000000
      2.72000000	     12.88202481	      0.97070096	      5.78463659	      0.90996477	      0.86769450	      0.17210210	     14.57118640	     -2.88858788	    -31.40838869	     25.62391244	     -2.61599788	      0.44722164	      8.24910317	     37.36642226	     -7.50075040	    -29.59930544	      0.12550886	    -11.22547734	     27.51095612	     -6.36591209	      0.48015676	     17.93239550	     32.52654240	     -7.50075040	    -34.39396184	      3.69083766	     -1.41350807	     -3.71761180	    -12.84439656	     -3.58027670	     42.45347859	     90.00000001	      0.00000000	      0.00000000	     24.04297973	    -15.85570716	      6.26348715	     51.95184159	     90.00000001	      0.00000000	      0.00000000
      2.73000000	     13.37746737	      0.37001494	      5.85476198	      0.92517748	      0.86918033	      0.17304833	     13.76252122	     -2.15930733	    -30.71059278	     27.20365738	     -2.78380650	      0.47479339	      9.46229492	     36.65677892	     -7.50074196	    -29.50810118	     -0.91818919	    -11.40937671	     29.99584550	     -6.71572818	      0.52352627	     14.68639061	     31.97035314	     -7.50074196	    -34.63533192	      4.46178807	     -1.10339620	     -3.61813244	    -13.13064737	     -3.33694904	     42.49516341	     90.00000001	      0.00000000	      0.00000000	     23.23640856	    -15.68123255	      6.06489936	     52.17130248	     90.00000001	      0.00000000	      0.00000000
      2.74000000	     13.97014914	     -0.31496083	      5.93361465	      0.94007817	      0.87116879	      0.17413615	     12.56383638	     -1.23893339	    -29.39319580	     28.22266523	     -2.46987792	      0.49257843	     10.66133193	     35.53296452	     -7.50072907	    -29.39157696	     -1.99454994	    -11.39711799	     32.43427028	     -7.13866746	      0.56608481	     11.92047097	     31.44474137	     -7.50072907	    -35.03842613	      5.30117254	     -0.73101637	     -3.48657299	    -13.49298607	     -2.88412006	     42.65749992	     90.00000001	      0.00000000	      0.00000000	     22.46530131	    -15.53836742	      5.89108932	     52.32708575	     90.00000001	      0.00000000	      0.00000000
      2.75000000	     14.61668039	     -1.10198463	      5.99921911	      0.95463838	      0.87349433	      0.17544597	     11.01632772	     -0.13180595	    -27.30002849	     28.66986701	     -1.50624153	      0.50038358	     11.37120974	     33.37611663	     -7.50070086	    -29.12608046	     -3.26664309	    -11.56685224	     35.02447605	     -7.47412225	      0.61129243	     10.05459900	     31.14198212	     -7.50070086	    -35.53365933	      6.18509844	     -0.23747789	     -3.35118287	    -13.93878370	     -2.12902230	     42.90029868	     90.00000001	      0.00000000	      0.00000000	     21.75567186	    -15.36872837	      5.75000314	     52.37319777	     90.00000001	      0.00000000	      0.00000000
      2.76000000	     15.14351660	     -1.69310203	      6.15361319	      0.96856047	      0.87584512	      0.17649749	      9.46992944	      0.62291196	    -26.28396129	     28.90559462	     -0.72784672	      0.50449780	     12.38481595	     32.48972853	     -7.50068394	    -28.43399922	     -4.30330326	    -11.64008576	     37.80750472	     -8.02026725	      0.65986544	      8.74418617	     30.72441536	     -7.50068394	    -35.97726712	      6.90060044	      0.08068014	     -3.07534425	    -14.20679297	     -1.92793405	     43.19315582	     90.00000001	      0.00000000	      0.00000000	     21.12115393	    -15.26504281	      5.70754397	     52.27775582	     90.00000001	      0.00000000	      0.00000000
      2.77000000	     15.49711970	     -2.47546901	      6.31944218	      0.98189404	      0.87808152	      0.17771081	      7.94755200	      1.75326529	    -25.00180879	     28.50373284	      0.09186503	      0.49748399	     12.82477578	     31.00751554	     -7.50064858	    -27.23097725	     -5.65072576	    -12.43568390	     40.80620585	     -8.80821224	      0.71220265	      8.42157110	     31.13087296	     -7.50064858	    -36.29725013	      7.77078316	      0.51413289	     -2.78283415	    -14.58510662	     -1.44691276	     43.57812689	     90.00000001	      0.00000000	      0.00000000	     20.49938975	    -15.09879770	      5.68161873	     52.11481349	     90.00000001	      0.00000000	      0.00000000
      2.78000000	     15.64441953	     -3.00842848	      6.54041028	      0.99458259	      0.88013585	      0.17876723	      6.63148087	      2.54561467	    -24.55659159	     28.05603156	      0.56361854	      0.48967013	     13.62985636	     30.69768777	     -7.50062767	    -25.56049182	     -6.69865669	    -12.97315488	     43.84580797	     -9.68613640	      0.76525371	      8.58771916	     30.80936553	     -7.50062767	    -36.46671313	      8.38940118	      0.78317572	     -2.41794798	    -14.82154705	     -1.27516997	     43.95897627	     90.00000001	      0.00000000	      0.00000000	     19.95572679	    -14.96054355	      5.67807151	     51.85660825	     90.00000001	      0.00000000	      0.00000000
      2.79000000	     15.74367164	     -3.32759872	      6.83876160	      1.00684268	      0.88229614	      0.17942234	      5.22910379	      3.06465371	    -24.45611460	     27.34279433	      1.01348246	      0.47722179	     14.31796953	     30.78860007	     -7.50061312	    -23.67889478	     -7.44180193	    -13.54259398	     46.64291294	    -10.81844542	      0.81407240	      9.20795084	     30.34082992	     -7.50061312	    -36.61725186	      8.84977007	      0.89435795	     -2.04254475	    -15.01750156	     -1.16220532	     44.41799935	     90.00000001	      0.00000000	      0.00000000	     19.44841719	    -14.82819742	      5.70742026	     51.53052054	     90.00000001	      0.00000000	      0.00000000
